<svg width="49" height="31" viewBox="0 0 49 31" fill="none" xmlns="http://www.w3.org/2000/svg">
<path d="M41.736 29.8302C39.0412 29.7678 36.9075 27.5444 36.9703 24.8641C37.0331 22.1839 39.2686 20.0617 41.9634 20.1242C44.6582 20.1867 46.7919 22.4101 46.7291 25.0903C46.6663 27.7706 44.4308 29.8927 41.736 29.8302Z" stroke="white" stroke-width="2" stroke-miterlimit="10"/>
<path d="M10.4377 29.8307C7.74211 29.8307 5.55694 27.6574 5.55694 24.9764C5.55694 22.2954 7.74211 20.1221 10.4377 20.1221C13.1332 20.1221 15.3184 22.2954 15.3184 24.9764C15.3184 27.6574 13.1332 29.8307 10.4377 29.8307Z" stroke="white" stroke-width="2" stroke-miterlimit="10"/>
<path d="M32.8409 24.8726C32.8437 23.7218 33.0748 22.5828 33.5211 21.5209C33.9674 20.4591 34.6201 19.4954 35.4417 18.685C38.9088 15.2508 44.5329 15.2508 48 18.685" stroke="white" stroke-width="2" stroke-miterlimit="10" stroke-linecap="round" stroke-linejoin="round"/>
<path d="M1.25796 24.8724C1.25796 20.0145 5.21708 16.0776 10.1013 16.0776C14.9856 16.0776 18.9438 20.0154 18.9438 24.8732" stroke="white" stroke-width="2" stroke-miterlimit="10" stroke-linecap="round" stroke-linejoin="round"/>
<path d="M20.208 6.02637H3.78509V11.0527H20.208V6.02637Z" stroke="white" stroke-width="2" stroke-miterlimit="10" stroke-linecap="round" stroke-linejoin="round"/>
<path d="M42.9473 16.078L35.3668 1H30.3132" stroke="white" stroke-width="2" stroke-miterlimit="10" stroke-linecap="round" stroke-linejoin="round"/>
<path d="M32.8408 24.9766H18.9438" stroke="white" stroke-width="2" stroke-miterlimit="10" stroke-linecap="round" stroke-linejoin="round"/>
<path d="M20.2076 11.0518C20.2076 11.0518 25.2612 29.8991 35.3667 11.0518" stroke="white" stroke-width="2" stroke-miterlimit="10" stroke-linecap="round" stroke-linejoin="round"/>
<path d="M3.78467 11.0518C3.78467 11.0518 -0.0059909 17.3342 1.25786 24.8728" stroke="white" stroke-width="2" stroke-miterlimit="10" stroke-linecap="round" stroke-linejoin="round"/>
</svg>
