<svg width="24" height="24" viewBox="0 0 24 24" fill="none" xmlns="http://www.w3.org/2000/svg">
<path d="M12.4285 5.63275C9.14373 5.63275 6.49279 8.28374 6.49279 11.5685C6.49279 14.8533 9.14373 17.5043 12.4285 17.5043C15.7132 17.5043 18.3641 14.8533 18.3641 11.5685C18.3641 8.28374 15.7132 5.63275 12.4285 5.63275ZM12.4285 15.4263C10.3042 15.4263 8.57071 13.6928 8.57071 11.5685C8.57071 9.44427 10.3042 7.71071 12.4285 7.71071C14.5527 7.71071 16.2862 9.44427 16.2862 11.5685C16.2862 13.6928 14.5527 15.4263 12.4285 15.4263ZM18.6072 4.00628C17.8403 4.00628 17.221 4.62561 17.221 5.39255C17.221 6.15948 17.8403 6.77881 18.6072 6.77881C19.3741 6.77881 19.9935 6.16237 19.9935 5.39255C19.9937 5.21043 19.958 5.03007 19.8884 4.86177C19.8188 4.69348 19.7167 4.54057 19.5879 4.4118C19.4592 4.28302 19.3063 4.18092 19.138 4.11134C18.9697 4.04175 18.7893 4.00605 18.6072 4.00628ZM23.9988 11.5685C23.9988 9.97099 24.0133 8.38793 23.9236 6.79328C23.8338 4.94107 23.4113 3.29723 22.0569 1.94279C20.6996 0.585466 19.0587 0.165824 17.2065 0.0761071C15.609 -0.0136097 14.026 0.000860829 12.4313 0.000860829C10.8338 0.000860829 9.25081 -0.0136097 7.65619 0.0761071C5.80401 0.165824 4.1602 0.58836 2.80579 1.94279C1.44849 3.30012 1.02886 4.94107 0.939143 6.79328C0.849428 8.39082 0.863898 9.97389 0.863898 11.5685C0.863898 13.1632 0.849428 14.7491 0.939143 16.3438C1.02886 18.196 1.45139 19.8398 2.80579 21.1943C4.1631 22.5516 5.80401 22.9712 7.65619 23.0609C9.2537 23.1507 10.8367 23.1362 12.4313 23.1362C14.0289 23.1362 15.6119 23.1507 17.2065 23.0609C19.0587 22.9712 20.7025 22.5487 22.0569 21.1943C23.4142 19.8369 23.8338 18.196 23.9236 16.3438C24.0162 14.7491 23.9988 13.1661 23.9988 11.5685ZM21.4521 18.3928C21.2408 18.9195 20.9861 19.3131 20.5781 19.7183C20.17 20.1263 19.7793 20.381 19.2526 20.5923C17.7303 21.1972 14.1157 21.0611 12.4285 21.0611C10.7412 21.0611 7.12369 21.1972 5.60143 20.5952C5.07472 20.3839 4.68113 20.1292 4.27596 19.7212C3.8679 19.3131 3.61323 18.9224 3.40197 18.3957C2.80001 16.8705 2.93603 13.2558 2.93603 11.5685C2.93603 9.88128 2.80001 6.26367 3.40197 4.74138C3.61323 4.21465 3.8679 3.82106 4.27596 3.41588C4.68402 3.01071 5.07472 2.75314 5.60143 2.54187C7.12369 1.9399 10.7412 2.07592 12.4285 2.07592C14.1157 2.07592 17.7332 1.9399 19.2555 2.54187C19.7822 2.75314 20.1758 3.00782 20.5809 3.41588C20.989 3.82395 21.2437 4.21465 21.4549 4.74138C22.0569 6.26367 21.9209 9.88128 21.9209 11.5685C21.9209 13.2558 22.0569 16.8705 21.4521 18.3928Z" fill="#DA5C5C"/>
</svg>
