<svg width="24" height="24" viewBox="0 0 24 24" fill="none" xmlns="http://www.w3.org/2000/svg">
<path fill-rule="evenodd" clip-rule="evenodd" d="M3.22301 3.0293C3.655 2.59731 4.24089 2.35463 4.85181 2.35463H18.6726C19.2835 2.35463 19.8694 2.59731 20.3014 3.0293C20.7334 3.46128 20.9761 4.04718 20.9761 4.65809V18.4789C20.9761 19.0898 20.7334 19.6757 20.3014 20.1077C19.8694 20.5397 19.2835 20.7824 18.6726 20.7824H4.85181C4.24089 20.7824 3.655 20.5397 3.22301 20.1077C2.79103 19.6757 2.54834 19.0898 2.54834 18.4789V4.65809C2.54834 4.04718 2.79103 3.46128 3.22301 3.0293ZM18.6726 0.0511589H4.85181C3.62997 0.0511589 2.45818 0.536531 1.59421 1.4005C0.730245 2.26447 0.244873 3.43626 0.244873 4.65809V18.4789C0.244873 19.7007 0.730245 20.8725 1.59421 21.7365C2.45818 22.6005 3.62997 23.0858 4.85181 23.0858H18.6726C19.8945 23.0858 21.0662 22.6005 21.9302 21.7365C22.7942 20.8725 23.2796 19.7007 23.2796 18.4789V4.65809C23.2796 3.43626 22.7942 2.26447 21.9302 1.4005C21.0662 0.536531 19.8945 0.0511589 18.6726 0.0511589ZM17.5209 17.1278V12.8698C17.5209 10.5894 16.3023 9.52747 14.6784 9.52747C13.3666 9.52747 12.7815 10.2485 12.4532 10.7552V10.7783H12.4371L12.4532 10.7541V9.70254H9.98392C10.0173 10.3993 9.98392 17.1278 9.98392 17.1278H12.4532V12.9804C12.4532 12.7592 12.4705 12.5381 12.535 12.3792C12.7135 11.9346 13.1201 11.4762 13.8019 11.4762C14.6957 11.4762 15.0527 12.1569 15.0527 13.1543V17.1278H17.5209ZM6.00353 7.40483C6.00353 6.67693 6.55636 6.1218 7.40058 6.1218C8.24595 6.1218 8.76538 6.67693 8.78151 7.40483C8.78151 8.11775 8.24595 8.68901 7.38446 8.68901H7.36833C6.54024 8.68901 6.00353 8.1189 6.00353 7.40483ZM8.61911 17.1278H6.1498V9.70254H8.61911V17.1278Z" fill="#DA5C5C"/>
</svg>
