<svg width="29" height="22" viewBox="0 0 29 22" fill="none" xmlns="http://www.w3.org/2000/svg">
<path d="M28.8122 11.26C28.8122 11.189 28.8122 11.1084 28.809 11.0149C28.8058 10.7537 28.7993 10.4602 28.7929 10.1474C28.7672 9.24773 28.7221 8.35125 28.6514 7.50637C28.5549 6.34224 28.4134 5.3716 28.2205 4.64281C28.0169 3.88225 27.6178 3.18861 27.0631 2.63121C26.5084 2.07381 25.8175 1.67217 25.0595 1.46645C24.1495 1.22137 22.368 1.06981 19.8598 0.976288C18.6668 0.931142 17.3902 0.902119 16.1136 0.885995C15.6666 0.879546 15.2518 0.876321 14.8788 0.873096H13.9334C13.5604 0.876321 13.1456 0.879546 12.6986 0.885995C11.422 0.902119 10.1454 0.931142 8.95236 0.976288C6.44415 1.07303 4.65947 1.22459 3.75266 1.46645C2.99441 1.67167 2.30327 2.07313 1.74849 2.63061C1.19371 3.18809 0.794779 3.882 0.591679 4.64281C0.395524 5.3716 0.257252 6.34224 0.160782 7.50637C0.0900381 8.35125 0.045019 9.24773 0.0192938 10.1474C0.00964689 10.4602 0.00643124 10.7537 0.0032156 11.0149C0.0032156 11.1084 0 11.189 0 11.26V11.4405C0 11.5115 -4.91148e-08 11.5921 0.0032156 11.6856C0.00643124 11.9468 0.0128625 12.2403 0.0192938 12.5531C0.045019 13.4528 0.0900381 14.3493 0.160782 15.1941C0.257252 16.3583 0.39874 17.3289 0.591679 18.0577C1.00328 19.6023 2.21236 20.8213 3.75266 21.2341C4.65947 21.4791 6.44415 21.6307 8.95236 21.7242C10.1454 21.7694 11.422 21.7984 12.6986 21.8145C13.1456 21.821 13.5604 21.8242 13.9334 21.8274H14.8788C15.2518 21.8242 15.6666 21.821 16.1136 21.8145C17.3902 21.7984 18.6668 21.7694 19.8598 21.7242C22.368 21.6275 24.1527 21.4759 25.0595 21.2341C26.5998 20.8213 27.8089 19.6056 28.2205 18.0577C28.4167 17.3289 28.5549 16.3583 28.6514 15.1941C28.7221 14.3493 28.7672 13.4528 28.7929 12.5531C28.8025 12.2403 28.8058 11.9468 28.809 11.6856C28.809 11.5921 28.8122 11.5115 28.8122 11.4405V11.26ZM26.4969 11.4276C26.4969 11.4954 26.4969 11.5695 26.4937 11.6566C26.4905 11.9081 26.4841 12.1855 26.4776 12.4854C26.4551 13.3431 26.4101 14.2009 26.3426 14.9974C26.2557 16.0358 26.1336 16.8871 25.9824 17.4579C25.783 18.2028 25.1978 18.7929 24.4582 18.9896C23.7829 19.1702 22.0818 19.3153 19.7698 19.4024C18.5993 19.4476 17.3388 19.4766 16.0814 19.4927C15.6409 19.4992 15.2325 19.5024 14.8659 19.5024H13.9463L12.7307 19.4927C11.4734 19.4766 10.2161 19.4476 9.0424 19.4024C6.73035 19.3121 5.02605 19.1702 4.35398 18.9896C3.61439 18.7897 3.02914 18.2028 2.82977 17.4579C2.67863 16.8871 2.55644 16.0358 2.46962 14.9974C2.40209 14.2009 2.36028 13.3431 2.33456 12.4854C2.32491 12.1855 2.3217 11.9049 2.31848 11.6566C2.31848 11.5695 2.31526 11.4921 2.31526 11.4276V11.2729C2.31526 11.2051 2.31526 11.131 2.31848 11.0439C2.3217 10.7924 2.32813 10.515 2.33456 10.2151C2.35707 9.35737 2.40209 8.49959 2.46962 7.70308C2.55644 6.66472 2.67863 5.81339 2.82977 5.24261C3.02914 4.4977 3.61439 3.90757 4.35398 3.71086C5.02927 3.53028 6.73035 3.38516 9.0424 3.29809C10.2129 3.25295 11.4734 3.22393 12.7307 3.2078C13.1713 3.20135 13.5797 3.19813 13.9463 3.19813H14.8659L16.0814 3.2078C17.3388 3.22393 18.5961 3.25295 19.7698 3.29809C22.0818 3.38839 23.7861 3.53028 24.4582 3.71086C25.1978 3.91079 25.783 4.4977 25.9824 5.24261C26.1336 5.81339 26.2557 6.66472 26.3426 7.70308C26.4101 8.49959 26.4519 9.35737 26.4776 10.2151C26.4873 10.515 26.4905 10.7956 26.4937 11.0439C26.4937 11.131 26.4969 11.2084 26.4969 11.2729V11.4276ZM11.5442 15.6714L19.0045 11.318L11.5442 7.02911V15.6714Z" fill="#DA5C5C"/>
</svg>
